<?xml version="1.0" standalone="no"?><!DOCTYPE svg PUBLIC "-//W3C//DTD SVG 1.1//EN" "http://www.w3.org/Graphics/SVG/1.1/DTD/svg11.dtd"><svg t="1702384697951" class="icon" viewBox="0 0 1024 1024" version="1.1" xmlns="http://www.w3.org/2000/svg" p-id="1566" xmlns:xlink="http://www.w3.org/1999/xlink" width="48" height="48"><path d="M811.8 238a129.3 129.3 0 0 0-31.8-4.1h-12.5v-14.7a93.9 93.9 0 0 0-30.7-70 84.3 84.3 0 0 0-73.2-20.7 365 365 0 0 0-151.7 73.4A362.3 362.3 0 0 0 360 128.5a84.3 84.3 0 0 0-73.2 20.7 93.9 93.9 0 0 0-30.7 70v14.7h-12.3a173 173 0 0 0-32.7 4.1 110.7 110.7 0 0 0-83.2 110v345.4a121.4 121.4 0 0 0 8.2 45.3 108.9 108.9 0 0 0 90 70A585.5 585.5 0 0 1 450 880.8a125.1 125.1 0 0 0 123.3 0 587.8 587.8 0 0 1 223-72.2A105.3 105.3 0 0 0 840 795.5a116.7 116.7 0 0 0 56.4-100.8v-347a111.1 111.1 0 0 0-84.6-109.7zM330 196.7a21.3 21.3 0 0 1 14.3-5.8 25.8 25.8 0 0 1 3.9 0A305.7 305.7 0 0 1 480 258.4v432.1a363.2 363.2 0 0 0-137.7-47.2 26.8 26.8 0 0 1-21.7-28.1v-396a30 30 0 0 1 9.4-22.5z m364 0a30 30 0 0 1 9.5 22.5v396a26.9 26.9 0 0 1-21.8 28.1A365 365 0 0 0 544 690V258.3a305.5 305.5 0 0 1 131.8-67 21.1 21.1 0 0 1 18.2 5.4z m138 498A52.5 52.5 0 0 1 807.3 740a43 43 0 0 1-17.3 5 652.9 652.9 0 0 0-248.1 80 62.6 62.6 0 0 1-60.8 0 652 652 0 0 0-250-80 44.3 44.3 0 0 1-36.4-30 56.4 56.4 0 0 1-3.5-21.4V347.7A46.5 46.5 0 0 1 226.8 300a140 140 0 0 1 17-2.1h12.7v317.3a90.7 90.7 0 0 0 78.6 91.7 309.3 309.3 0 0 1 125.7 46.7 94.7 94.7 0 0 0 102.3 0 308.7 308.7 0 0 1 125.8-46.7 90.7 90.7 0 0 0 78.6-91.7V297.9H780a65.6 65.6 0 0 1 15.9 2.1 47.3 47.3 0 0 1 35.8 47.7z" fill="#707070" p-id="1567"></path><path d="M403.8 280.7a32 32 0 1 0-27.6 57.8l23 11a32 32 0 0 0 27.6-57.8zM426.8 412.2l-23-11a32 32 0 1 0-27.6 57.8l23 11a32 32 0 0 0 27.6-57.8zM426.8 532.7l-23-11A32 32 0 0 0 376.2 580l23 11a32 32 0 1 0 27.6-57.8zM620 280.7l-23 11A32 32 0 0 0 624.8 350l23-11A32 32 0 1 0 620 280.7zM620 401.2l-23 11A32 32 0 0 0 624.8 470l23-11A32 32 0 0 0 620 401.2zM620 521.7l-23 11a32 32 0 0 0 27.6 57.8l23-11A32 32 0 0 0 620 521.7z" fill="#707070" p-id="1568"></path></svg>